<svg width="152" height="149" viewBox="0 0 152 149" fill="none" xmlns="http://www.w3.org/2000/svg">
<path d="M78.7276 134.491C62.0632 134.498 45.9025 129.226 32.9538 119.557C20.0051 109.889 11.0553 96.4115 7.60433 81.3846C4.15332 66.3577 6.41082 50.694 13.9985 37.0187C21.5862 23.3434 34.0429 12.4874 49.2811 6.27021C64.5193 0.0529898 81.6129 -1.14768 97.6973 2.8694C113.782 6.88649 127.879 15.8772 137.628 28.3348C147.376 40.7925 152.182 55.9599 151.242 71.2953C150.301 86.6308 143.67 101.202 132.461 112.568L147.635 128.247L140.063 131.207C128.348 135.787 116.885 131.331 110.451 127.774C100.562 132.192 89.7166 134.489 78.7276 134.491V134.491ZM78.7276 11.547C45.2036 11.547 17.9297 36.6859 17.9297 67.5857C17.9297 98.4857 45.2036 123.625 78.7276 123.625C88.9433 123.625 98.9948 121.256 107.955 116.734L111.197 115.092L114.211 117.069C116.408 118.509 120.74 120.989 125.714 121.919L116.165 112.053L120.35 108.428C126.43 103.208 131.273 96.8842 134.573 89.8554C137.873 82.8266 139.559 75.2444 139.525 67.5857C139.525 36.6859 112.252 11.547 78.7276 11.547V11.547Z" fill="#3F3D56"/>
<path d="M145.42 67.5857C145.42 33.6357 115.561 6.11377 78.7275 6.11377C41.8943 6.11377 12.0351 33.6357 12.0351 67.5857C12.0351 101.536 41.8943 129.058 78.7275 129.058C89.9375 129.073 100.969 126.471 110.794 121.496C115.404 124.519 126.651 130.549 137.761 126.206L124.387 112.387C131.035 106.646 136.333 99.7063 139.951 91.9996C143.569 84.2928 145.43 75.983 145.42 67.5857Z" fill="#00E4FF"/>
<path opacity="0.1" d="M23.8241 67.2752C23.8241 35.1565 50.5504 8.79594 84.622 6.04503C82.6794 5.88819 80.7143 5.80331 78.7275 5.80331C41.8943 5.80331 12.0351 33.3252 12.0351 67.2752C12.0351 101.225 41.8943 128.747 78.7275 128.747C80.7113 128.747 82.673 128.661 84.6127 128.505C50.5456 125.75 23.8241 99.3909 23.8241 67.2752Z" fill="black"/>
<path d="M6.22368 65.4376C9.66055 65.4376 12.4467 62.8696 12.4467 59.7017C12.4467 56.5339 9.66055 53.9659 6.22368 53.9659C2.78682 53.9659 0.000686646 56.5339 0.000686646 59.7017C0.000686646 62.8696 2.78682 65.4376 6.22368 65.4376Z" fill="#2F2E41"/>
<path d="M28.781 76.7299L25.6465 73.9216L19.3525 75.7236L19.957 82.4409L32.8985 81.8869L28.9228 76.9077L28.781 76.7299Z" fill="#FBBEBE"/>
<path d="M21.9257 76.6721C27.4822 76.6721 31.9866 72.5203 31.9866 67.3987C31.9866 62.2772 27.4822 58.1254 21.9257 58.1254C16.3692 58.1254 11.8648 62.2772 11.8648 67.3987C11.8648 72.5203 16.3692 76.6721 21.9257 76.6721Z" fill="#FBBEBE"/>
<path d="M84.3842 88.6323C84.3842 88.6323 96.7442 108.21 99.6857 111.15C101.085 112.596 102.575 113.965 104.149 115.25C104.149 115.25 102.766 119.478 100.563 119.327C99.3081 119.257 98.077 118.977 96.9303 118.501C96.9303 118.501 95.9473 116.153 94.2327 115.123C92.518 114.093 78.5093 101.39 78.8367 97.3297C79.1642 93.2697 84.3842 88.6323 84.3842 88.6323Z" fill="#2F2E41"/>
<path d="M40.3666 116.571C40.3666 116.571 53.5451 125.999 71.4552 117.14L72.9986 116.093C72.9986 116.093 70.3939 121.494 70.1522 122.959C69.872 124.656 63.0905 134.602 61.9839 135.079C60.8773 135.555 60.6334 135.995 60.6334 135.995L65.3297 140.759L67.066 139.581C67.066 139.581 73.8366 130.74 75.8169 129.122C77.7972 127.505 87.2321 110.825 87.2321 110.825C87.2321 110.825 90.8394 104.54 81.8368 104.067C72.8342 103.594 68.6916 105.856 68.6916 105.856L52.7142 108.196L40.3666 116.571Z" fill="#2F2E41"/>
<path d="M104.302 114.324L110.968 118.575C110.968 118.575 119.471 121.03 114.233 122.665C108.995 124.299 95.1906 124.89 94.8774 122.635C94.5642 120.381 95.4219 116.832 96.1105 117.026C96.7992 117.22 101.579 118.364 104.302 114.324Z" fill="#2F2E41"/>
<path d="M67.6559 138.121L68.8896 144.365C68.8896 144.365 72.3977 150.55 68.1856 148.631C63.9735 146.712 55.2955 139.423 56.577 137.896C57.8584 136.368 60.6868 134.71 60.974 135.208C61.2612 135.706 63.3871 139.04 67.6559 138.121Z" fill="#2F2E41"/>
<path d="M54.9458 110.246C54.9458 110.246 45.9874 119.886 40.5486 117.544C35.1098 115.202 12.8587 88.0784 15.3994 83.0653C17.9401 78.0523 18.792 79.1193 18.792 79.1193L30.2809 80.0985L26.9753 75.2132C26.9753 75.2132 28.5187 74.1663 29.9895 75.6359C31.4603 77.1055 37.3651 80.776 39.4222 85.96C41.4792 91.144 47.5185 90.8854 47.5185 90.8854L54.9458 110.246Z" fill="white"/>
<path d="M91.1226 90.3668L75.5936 105.561L61.6826 82.9225L74.9073 68.195L91.1226 90.3668Z" fill="#3F3D56"/>
<path d="M89.9504 90.2024L75.9249 103.554L63.2153 82.9794L74.8711 69.4534L89.9504 90.2024Z" fill="white"/>
<path d="M74.8328 104.98L75.5936 105.561L75.1057 106.44L53.3913 112.397L53.186 111.711L54.1739 110.769L74.8328 104.98Z" fill="#B3B3B3"/>
<path d="M75.7865 105.43L53.3006 111.91L39.5935 88.0369L61.6826 82.9224L75.7865 105.43Z" fill="#D0CDE1"/>
<path d="M74.0937 102.192L73.1289 102.846L62.422 85.7107L63.5286 85.2343L74.0937 102.192Z" fill="#3F3D56"/>
<path d="M71.8802 103.145L62.3682 105.759L51.5702 88.137L60.9804 86.1404L71.8802 103.145Z" fill="#3F3D56"/>
<path d="M45.0831 90.0701L47.0525 89.5566C47.0525 89.5566 58.0353 88.412 58.1957 91.5929C58.356 94.7737 45.5783 93.2979 45.5783 93.2979L43.8745 91.164L45.0831 90.0701Z" fill="#FBBEBE"/>
<path d="M54.7162 104.37L57.4573 103.333C57.4573 103.333 65.7316 99.9139 63.358 97.686C60.9844 95.4581 53.6639 99.3272 53.6639 99.3272L52.2624 100.552L54.7162 104.37Z" fill="#FBBEBE"/>
<path d="M52.2733 99.4481C52.2733 99.4481 56.7365 103.548 55.7209 104.511C54.7053 105.474 38.0514 118.142 33.923 114.088C29.7947 110.035 9.68072 89.6858 17.5074 87.9406C25.334 86.1955 27.4019 90.2755 27.4019 90.2755L37.7341 106.569L52.2733 99.4481Z" fill="white"/>
<path d="M38.9089 86.9934L46.2405 89.2849L46.1208 94.1636L38.3668 93.3924L38.9089 86.9934Z" fill="white"/>
<path opacity="0.2" d="M45.517 101.975L37.6177 106.237L28.5926 93.4429L37.3044 103.982L45.517 101.975Z" fill="black"/>
<path d="M17.5097 75.7503C24.1245 75.7503 29.4869 70.8077 29.4869 64.7106C29.4869 58.6135 24.1245 53.6709 17.5097 53.6709C10.8948 53.6709 5.53244 58.6135 5.53244 64.7106C5.53244 70.8077 10.8948 75.7503 17.5097 75.7503Z" fill="#2F2E41"/>
<path d="M82.2255 91.3302L73.8391 80.0222L77.3941 75.966L86.1083 87.5999L82.2255 91.3302Z" fill="#9D4EDD"/>
<path d="M81.9891 95.8766L69.2216 78.7682L69.8513 78.0669L82.5592 95.2157L81.9891 95.8766Z" fill="#E6E6E6"/>
<path d="M80.3439 97.5409L67.5764 80.4325L68.2061 79.7312L80.9139 96.8803L80.3439 97.5409Z" fill="#E6E6E6"/>
<path d="M78.9423 98.7656L66.1748 81.6573L66.8045 80.956L79.5123 98.1051L78.9423 98.7656Z" fill="#E6E6E6"/>
<path d="M22.8136 57.3404H26.5188C28.3948 57.3404 30.1939 58.0273 31.5205 59.2499C32.847 60.4726 33.5922 62.131 33.5922 63.8601V63.8601H22.8136V57.3404Z" fill="#2F2E41"/>
</svg>
